<svg width="24" height="24" viewBox="0 0 24 24" fill="none" xmlns="http://www.w3.org/2000/svg">
<path d="M12.0398 0.000253883C12.4426 0.0028658 12.8459 0.0256355 13.2484 0.0687698C15.2048 0.278442 17.0798 0.962903 18.7092 2.06225C20.3387 3.16159 21.673 4.6423 22.5953 6.37478C23.5177 8.10725 24 10.0387 24 12C24 13.6442 23.661 15.2709 23.004 16.7792C22.3471 18.2874 21.3862 19.6449 20.181 20.7677C18.9757 21.8903 17.5519 22.754 15.9979 23.3054C14.5743 23.8104 13.0691 24.0433 11.5614 23.9934L11.5611 23.9905L11.5621 23.99C11.5638 23.9892 11.5653 23.9882 11.5667 23.987C11.5674 23.9863 11.5685 23.9853 11.5691 23.9845C11.5703 23.982 11.5709 23.9794 11.5709 23.9766C11.5709 23.9738 11.5703 23.9712 11.5691 23.9687C11.5022 22.5318 11.3999 21.0646 11.3464 20.32V20.2871C11.3217 19.99 11.3763 19.6918 11.5046 19.4227C11.633 19.1538 11.8304 18.9238 12.0767 18.7564C12.7837 18.2749 13.3978 17.6693 13.8891 16.9686C14.8384 15.5402 15.0563 13.1115 15.0563 12.7957C15.0673 12.6276 15.0466 12.6057 15.0259 12.5983C15.0186 12.5959 15.0108 12.5959 15.0036 12.5983C14.9964 12.6007 14.9901 12.6054 14.9857 12.6118C14.7022 12.9907 14.4355 13.2138 14.1714 13.2954L14.1251 13.3065C14.0374 13.3338 13.9467 13.3505 13.855 13.3564C13.8438 13.3572 13.8327 13.3547 13.8231 13.3493C13.8133 13.3439 13.8054 13.3357 13.8002 13.3259C13.7953 13.3144 13.7936 13.3017 13.7953 13.2892C13.797 13.2768 13.802 13.2651 13.81 13.2552C14.1787 12.8391 14.4857 12.372 14.7215 11.8683C14.9739 11.3546 15.1595 10.8108 15.2742 10.2499C15.517 9.14767 15.5062 8.00454 15.2426 6.90708C15.1054 6.35296 14.8656 5.82958 14.5354 5.36423C14.2145 4.9041 13.7926 4.52351 13.3023 4.25157C12.8428 4.0045 12.3406 3.84734 11.8223 3.78848H11.7931C11.7607 3.78691 11.7283 3.79214 11.6981 3.80384C11.6678 3.81553 11.6404 3.83343 11.6175 3.85637C11.5945 3.87933 11.5767 3.90683 11.565 3.93711C11.5533 3.9674 11.5481 3.99979 11.5496 4.03221C11.5473 4.07849 11.5592 4.12439 11.5838 4.16365C11.6084 4.2029 11.6445 4.23359 11.6872 4.25157H11.7054C12.1036 4.42267 12.4641 4.67121 12.7656 4.98279C13.4326 5.6689 13.53 6.5293 13.4959 7.13133C13.4394 7.91791 13.205 8.68135 12.8107 9.36396C12.6295 9.68536 12.4091 9.98297 12.1546 10.2499C12.004 10.4042 11.8371 10.5415 11.6567 10.6594C11.6214 10.6671 11.5849 10.6671 11.5496 10.6594C10.5503 10.6131 10.2959 10.6485 9.34777 11.1993C8.57973 11.6429 8.33629 11.9805 8.27057 12.1012C7.7191 11.7719 7.07217 11.6403 6.43612 11.728C5.80006 11.8157 5.21273 12.1174 4.77062 12.5836C4.32853 13.0498 4.05799 13.6527 4.00346 14.2932C3.94892 14.9338 4.11365 15.5737 4.47055 16.1082L4.41821 16.1654C2.54868 15.9891 1.61947 16.4223 1.03173 16.8671C1.03124 16.8665 1.03093 16.8661 1.03081 16.8659C0.36819 15.3786 0 13.7322 0 12C0 6.97424 3.09948 2.6701 7.497 0.883251L7.48734 0.859538C8.92652 0.285241 10.4597 -0.00512248 12.0021 6.83837e-05L12.0385 1.46475e-05L12.0398 0.000253883Z" fill="#8D8D92"/>
<path d="M11.0808 11.9612C10.9895 11.8698 10.8657 11.8184 10.7366 11.8184C10.6074 11.8184 10.4836 11.8698 10.3923 11.9612C10.301 12.0526 10.2497 12.1765 10.2497 12.3059C10.2497 12.4351 10.301 12.5591 10.3923 12.6505C10.4836 12.742 10.6074 12.7933 10.7366 12.7933C10.8008 12.7945 10.8646 12.7827 10.9242 12.7585C10.9838 12.7345 11.038 12.6987 11.0834 12.6532C11.1288 12.6077 11.1647 12.5535 11.1887 12.4938C11.2128 12.4341 11.2246 12.3702 11.2234 12.3059C11.2234 12.1765 11.1721 12.0526 11.0808 11.9612Z" fill="#8D8D92"/>
</svg>
